<svg xmlns="http://www.w3.org/2000/svg" xmlns:xlink="http://www.w3.org/1999/xlink" width="552" height="100" viewBox="0 0 552 100">
    <defs>
        <path id="a" d="M.219 71h40.028V.56H.219V71z"/>
        <path id="c" d="M.425 71h40.028V.56H.425V71z"/>
        <path id="e" d="M0 101h526.103V.848H0z"/>
    </defs>
    <g fill="none" fill-rule="evenodd">
        <path fill="#129FDD" d="M67.374 37.903L44.714 24.82 22.17 37.701l.117 25.964 22.66 13.082 22.544-12.88z"/>
        <g transform="translate(0 .152)">
            <path fill="#129FDD" d="M39.651 100.638L4.091 79.384a10.94 10.94 0 0 1-4.09-8.53V30.197l14.263 8.772v27.438c0 1.249.661 2.405 1.738 3.039l24.027 14.14-.378 17.052z"/>
            <g transform="translate(49 30)">
                <mask id="b" fill="#fff">
                    <use xlink:href="#a"/>
                </mask>
                <path fill="#129FDD" d="M.596 71l35.56-21.254a10.939 10.939 0 0 0 4.09-8.53V.56L25.985 9.331V36.77a3.525 3.525 0 0 1-1.74 3.04L.22 53.948.596 71z" mask="url(#b)"/>
            </g>
            <path fill="#129FDD" d="M50 2.3A10.922 10.922 0 0 0 44.837.851V.848a.365.365 0 0 0-.033.002l-.032-.002v.003a10.922 10.922 0 0 0-5.163 1.45L4.423 22.67l14.738 7.948 23.745-13.746a3.51 3.51 0 0 1 1.898-.463 3.508 3.508 0 0 1 1.898.463L70.447 30.62l14.74-7.949L50 2.3z"/>
            <g transform="translate(0 30)">
                <mask id="d" fill="#fff">
                    <use xlink:href="#c"/>
                </mask>
                <path fill="#129FDD" d="M40.076 71L4.516 49.746a10.94 10.94 0 0 1-4.09-8.53V.56l14.263 8.772V36.77c0 1.25.661 2.405 1.738 3.04l24.026 14.14L40.076 71z" mask="url(#d)"/>
            </g>
            <path fill="#303135" d="M158.466 29.065c2.397 1.042 4.635 2.604 6.72 4.687l-6.25 6.25c-2.085-2.5-5-3.75-8.75-3.75s-6.147.886-7.189 2.657c-1.042 1.77-1.042 3.28 0 4.53 1.042 1.25 3.438 2.188 7.188 2.813 3.958.417 7.553 1.719 10.781 3.907 3.23 2.187 4.844 5.677 4.844 10.468 0 3.75-1.724 6.98-5.172 9.688-3.448 2.709-7.464 4.063-12.047 4.063-4.353 0-7.99-.625-10.906-1.875-2.917-1.25-5.417-2.917-7.5-5l6.25-6.25c2.083 2.5 5.625 3.958 10.625 4.375 4.166 0 6.766-.885 7.797-2.657 1.031-1.77 1.031-3.541 0-5.312-1.031-1.771-3.63-2.865-7.797-3.282-3.75-.416-7.188-1.562-10.313-3.437-3.125-1.875-4.687-5.104-4.687-9.687 0-4.146 1.776-7.474 5.328-9.985 3.552-2.51 7.203-3.765 10.953-3.765 4.355 0 7.73.52 10.125 1.562M186.12 46.252h13.125c3.77-.062 5.709-1.78 5.812-5.156-.103-3.083-2.01-4.688-5.718-4.813h-13.22v9.97zm-9.375 28.125V27.502h20.438c10.937 0 16.406 4.5 16.406 13.5 0 9.334-5.46 14-16.375 14H186.12v19.375h-9.375zM240.274 40.002l-7.125 17.812h14.062l-6.937-17.812zm-23.687 34.375l18.75-46.875h9.374l18.719 46.844-9.968.031-2.813-7.188h-21.25l-2.812 7.188h-10zM275.161 67.643c-4.49-4.47-6.734-10.067-6.734-16.797.02-6.583 2.27-12.12 6.75-16.61 4.478-4.49 10.031-6.734 16.656-6.734 6.687 0 12.427 2.084 17.22 6.25l-6.25 6.844c-3.189-2.5-6.845-3.75-10.97-3.75-4.209.022-7.6 1.334-10.172 3.938-2.573 2.604-3.859 5.937-3.859 10 .02 4.354 1.322 7.812 3.906 10.375 2.583 2.562 5.978 3.843 10.187 3.843 4.208 0 7.844-1.24 10.907-3.718l6.25 6.843c-4.772 4.167-10.51 6.25-17.219 6.25-6.625-.02-12.183-2.265-16.672-6.734M321.581 74.377V27.533l34.438-.03v8.75h-25.063v10h18.781v8.718h-18.78v10.656h25v8.75zM393.39 29.065c2.397 1.042 4.636 2.604 6.72 4.687l-6.25 6.25c-2.084-2.5-5-3.75-8.75-3.75s-6.147.886-7.188 2.657c-1.042 1.77-1.042 3.28 0 4.53 1.04 1.25 3.438 2.188 7.188 2.813 3.958.417 7.552 1.719 10.78 3.907 3.23 2.187 4.845 5.677 4.845 10.468 0 3.75-1.725 6.98-5.172 9.688-3.448 2.709-7.464 4.063-12.047 4.063-4.354 0-7.99-.625-10.906-1.875-2.917-1.25-5.417-2.917-7.5-5l6.25-6.25c2.083 2.5 5.625 3.958 10.625 4.375 4.166 0 6.765-.885 7.797-2.657 1.03-1.77 1.03-3.541 0-5.312-1.032-1.771-3.631-2.865-7.797-3.282-3.75-.416-7.188-1.562-10.313-3.437-3.125-1.875-4.687-5.104-4.687-9.687 0-4.146 1.775-7.474 5.328-9.985 3.552-2.51 7.203-3.765 10.953-3.765 4.354 0 7.729.52 10.125 1.562M411.67 74.377V27.502h9.375v18.75h21.844v-18.78h9.375v46.874l-9.375.031V55.002h-21.844v19.375z"/>
            <mask id="f" fill="#fff">
                <use xlink:href="#e"/>
            </mask>
            <path fill="#303135" d="M466.948 74.377h9.344V27.471h-9.344zM498.634 46.252h13.125c3.771-.062 5.708-1.78 5.812-5.156-.104-3.083-2.01-4.688-5.718-4.813h-13.219v9.97zm-9.375 28.125V27.502h20.438c10.937 0 16.406 4.5 16.406 13.5 0 9.334-5.459 14-16.375 14h-11.094v19.375h-9.375z" mask="url(#f)"/>
        </g>
    </g>
</svg>
